<svg width="236" height="87" viewBox="0 0 236 87" fill="none" xmlns="http://www.w3.org/2000/svg">
<path d="M38.7812 30.9844V40.4531H13.0469V66H0.71875V4.59375H43.0938V14.0625H13.0469V30.9844H38.7812ZM62.5469 20.3438V66H50.2188V20.3438H62.5469ZM62.5469 0.1875V9.42188H50.2188V0.1875H62.5469ZM88.7969 21.5625C93.7344 21.5625 97.6406 23.7812 100.516 28.2188L101.5 22.4062H112.141V67.8281C112.141 73.7656 110.203 78.3594 106.328 81.6094C102.453 84.8594 97.0156 86.4844 90.0156 86.4844C85.0156 86.4844 80.1719 85.2969 75.4844 82.9219L77.7812 73.7344C81.5625 75.5781 85.5938 76.5 89.875 76.5C93.2812 76.5 95.7656 75.7969 97.3281 74.3906C98.9219 73.0156 99.7188 70.8125 99.7188 67.7812V63.6562C96.9375 67.1875 93.2344 68.9531 88.6094 68.9531C83.0469 68.9531 78.6875 66.9219 75.5312 62.8594C72.375 58.7969 70.7969 53.3438 70.7969 46.5L70.8906 45.6094C70.8906 38.2656 72.4688 32.4219 75.625 28.0781C78.7812 23.7344 83.1719 21.5625 88.7969 21.5625ZM91.75 59.3438C95.4062 59.3438 98.0469 58 99.6719 55.3125V35.4844C97.9844 32.5781 95.3594 31.125 91.7969 31.125C88.8594 31.125 86.6719 32.4062 85.2344 34.9688C83.7969 37.5312 83.0781 41.0781 83.0781 45.6094L83.125 46.5C83.125 55.0625 86 59.3438 91.75 59.3438ZM160.094 33.4688L160.188 36V66H147.906V38.3438C147.906 35.0312 147.359 32.6562 146.266 31.2188C145.172 29.7812 143.469 29.0625 141.156 29.0625C137.906 29.0625 135.422 30.2812 133.703 32.7188V66H121.422V20.3438H132.906L133.422 26.3906C136.453 21.7969 140.906 19.5 146.781 19.5C152.656 19.5 156.656 22.1094 158.781 27.3281C161.75 22.1094 166.219 19.5 172.188 19.5C176.812 19.5 180.391 21.0781 182.922 24.2344C185.453 27.3906 186.719 32.0938 186.719 38.3438V66H174.391V38.3438C174.391 34.9688 173.844 32.5781 172.75 31.1719C171.688 29.7656 170 29.0625 167.688 29.0625C164.219 29.0625 161.688 30.5312 160.094 33.4688ZM208.797 66.9844C204.047 66.9844 200.375 65.7656 197.781 63.3281C195.188 60.8906 193.891 57.4688 193.891 53.0625C193.891 48.625 195.609 45.2031 199.047 42.7969C202.484 40.3594 207.516 39.1406 214.141 39.1406H220.984V35.5312C220.984 33.2812 220.406 31.5625 219.25 30.375C218.094 29.1875 216.453 28.5938 214.328 28.5938C212.234 28.5938 210.641 29.0781 209.547 30.0469C208.453 31.0156 207.906 32.3594 207.906 34.0781L196 34.0312V33.7969C195.781 29.8281 197.453 26.4688 201.016 23.7188C204.609 20.9688 209.219 19.5938 214.844 19.5938C220.5 19.5938 225 21 228.344 23.8125C231.688 26.625 233.359 30.5469 233.359 35.5781V54.4688C233.359 58.5625 234.031 62.4375 235.375 66.0938H223.047C222.047 63.7812 221.438 61.5 221.219 59.25C218.219 64.4062 214.078 66.9844 208.797 66.9844ZM206.078 52.8281H206.125C206.125 54.3594 206.625 55.5938 207.625 56.5312C208.656 57.4375 210.125 57.8906 212.031 57.8906C213.969 57.8906 215.781 57.375 217.469 56.3438C219.156 55.2812 220.312 54.0156 220.938 52.5469V46.0781H214.094C211.531 46.0781 209.547 46.7188 208.141 48C206.766 49.25 206.078 50.8594 206.078 52.8281Z" fill="black"/>
</svg>
