<svg width="105" height="67" viewBox="0 0 105 67" fill="none" xmlns="http://www.w3.org/2000/svg">
<path d="M48.9219 34.5469V57.7031C46.8594 60.3906 43.8594 62.6094 39.9219 64.3594C35.9844 66.1094 31.25 66.9844 25.7188 66.9844C18.1562 66.9844 12 64.6562 7.25 60C2.53125 55.3438 0.171875 49.2812 0.171875 41.8125V28.9688C0.171875 21.5 2.45312 15.4375 7.01562 10.7812C11.5781 6.125 17.5 3.79688 24.7812 3.79688C32.0938 3.79688 37.7656 5.57812 41.7969 9.14062C45.8281 12.7031 47.8906 17.5312 47.9844 23.625L47.8906 23.8594H36.3125C36.0312 20.5156 34.9531 17.9219 33.0781 16.0781C31.2031 14.2031 28.4531 13.2656 24.8281 13.2656C21.2031 13.2656 18.2344 14.7188 15.9219 17.625C13.6094 20.5 12.4531 24.25 12.4531 28.875V41.8125C12.4531 46.5312 13.6406 50.3281 16.0156 53.2031C18.4219 56.0781 21.6562 57.5156 25.7188 57.5156C30.875 57.5156 34.5 56.5 36.5938 54.4688V43.0781H25.7188V34.5469H48.9219ZM71.4219 20.3438V66H59.0938V20.3438H71.4219ZM71.4219 0.1875V9.42188H59.0938V0.1875H71.4219ZM83.8438 9.28125H96.1719V20.4375H103.859V29.1094H96.1719V52.3594C96.1719 55.6406 97.5312 57.2812 100.25 57.2812C101.219 57.2812 102.312 57.125 103.531 56.8125L104.562 65.7188C101.969 66.5625 99.4844 66.9844 97.1094 66.9844C88.2656 66.9844 83.8438 62.125 83.8438 52.4062V29.1094H77.1875V20.4375H83.8438V9.28125Z" fill="black"/>
</svg>
