<svg width="217" height="64" viewBox="0 0 217 64" fill="none" xmlns="http://www.w3.org/2000/svg">
<path d="M48.9219 31.5469V54.7031C46.8594 57.3906 43.8594 59.6094 39.9219 61.3594C35.9844 63.1094 31.25 63.9844 25.7188 63.9844C18.1562 63.9844 12 61.6562 7.25 57C2.53125 52.3438 0.171875 46.2812 0.171875 38.8125V25.9688C0.171875 18.5 2.45312 12.4375 7.01562 7.78125C11.5781 3.125 17.5 0.796875 24.7812 0.796875C32.0938 0.796875 37.7656 2.57812 41.7969 6.14062C45.8281 9.70312 47.8906 14.5312 47.9844 20.625L47.8906 20.8594H36.3125C36.0312 17.5156 34.9531 14.9219 33.0781 13.0781C31.2031 11.2031 28.4531 10.2656 24.8281 10.2656C21.2031 10.2656 18.2344 11.7188 15.9219 14.625C13.6094 17.5 12.4531 21.25 12.4531 25.875V38.8125C12.4531 43.5312 13.6406 47.3281 16.0156 50.2031C18.4219 53.0781 21.6562 54.5156 25.7188 54.5156C30.875 54.5156 34.5 53.5 36.5938 51.4688V40.0781H25.7188V31.5469H48.9219ZM82.2969 54.6562H82.3906C85.7031 54.6562 88.25 53.9844 90.0312 52.6406C91.8438 51.2656 92.75 49.4062 92.75 47.0625C92.75 44.6875 91.9219 42.7969 90.2656 41.3906C88.6406 39.9531 85.7031 38.5938 81.4531 37.3125C73.7344 35.0938 68.0938 32.5312 64.5312 29.625C61 26.6875 59.2344 22.75 59.2344 17.8125C59.2344 12.8438 61.375 8.76562 65.6562 5.57812C69.9375 2.39062 75.4219 0.796875 82.1094 0.796875C88.8281 0.796875 94.3125 2.57812 98.5625 6.14062C102.812 9.67188 104.859 14.1094 104.703 19.4531L104.656 19.6875H92.7031C92.7031 16.7812 91.7344 14.4688 89.7969 12.75C87.8906 11.0312 85.2812 10.1719 81.9688 10.1719C78.6562 10.1719 76.0781 10.8906 74.2344 12.3281C72.4219 13.7344 71.5156 15.5469 71.5156 17.7656C71.5156 19.9531 72.4375 21.7188 74.2812 23.0625C76.1562 24.375 79.5312 25.7969 84.4062 27.3281C91.375 29.2656 96.5469 31.7969 99.9219 34.9219C103.328 38.0156 105.031 42.1094 105.031 47.2031C105.031 52.2969 102.969 56.375 98.8438 59.4375C94.75 62.4688 89.25 63.9844 82.3438 63.9844C77.8125 63.9844 73.6719 63.2344 69.9219 61.7344C66.1719 60.2031 63.1562 57.9219 60.875 54.8906C58.5938 51.8594 57.4844 48.3438 57.5469 44.3438L57.6406 44.0625H69.5938C69.5938 51.125 73.8281 54.6562 82.2969 54.6562ZM151.438 63L147.266 49.7344H125.703L121.531 63H109.109L130.25 1.59375H142.859L163.906 63H151.438ZM136.391 15.9375L128.75 40.0781H144.266L136.672 15.9375H136.391ZM181.953 11.0625V31.2188H194.094C197.469 31.2188 200.062 30.3125 201.875 28.5C203.688 26.6875 204.594 24.2656 204.594 21.2344C204.594 18.1719 203.688 15.7188 201.875 13.875C200.062 12 197.469 11.0625 194.094 11.0625H181.953ZM194.094 40.7344H181.953V63H169.625V1.59375H194.094C201.125 1.59375 206.672 3.375 210.734 6.9375C214.828 10.4688 216.875 15.2188 216.875 21.1875C216.875 27.125 214.844 31.875 210.781 35.4375C206.719 38.9688 201.156 40.7344 194.094 40.7344Z" fill="black"/>
</svg>
