<svg width="374" height="67" viewBox="0 0 374 67" fill="none" xmlns="http://www.w3.org/2000/svg">
<path d="M12.6719 20.3438V66H0.34375V20.3438H12.6719ZM12.6719 0.1875V9.42188H0.34375V0.1875H12.6719ZM35.7344 0.1875V66H23.4062V0.1875H35.7344ZM58.7969 0.1875V66H46.4688V0.1875H58.7969ZM83.9688 66.9844C79.0312 66.9844 75.2344 65.4219 72.5781 62.2969C69.9531 59.1719 68.6406 54.4062 68.6406 48V20.4375H80.875V48.0938C80.875 51.375 81.4219 53.75 82.5156 55.2188C83.6094 56.6875 85.2969 57.4219 87.5781 57.4219C91.4219 57.4219 94.25 56.1719 96.0625 53.6719V20.4375H108.391V66.0938H97.8906L96.8125 59.5312C93.875 64.5 89.5938 66.9844 83.9688 66.9844ZM135.344 58.5469V58.6875C137.594 58.6875 139.312 58.25 140.5 57.375C141.719 56.4688 142.328 55.2656 142.328 53.7656C142.328 52.2656 141.641 51.0469 140.266 50.1094C138.922 49.1406 136.531 48.2656 133.094 47.4844C127.531 46.3594 123.422 44.7188 120.766 42.5625C118.109 40.4062 116.781 37.4062 116.781 33.5625C116.781 29.6875 118.438 26.4062 121.75 23.7188C125.094 21.0312 129.578 19.6875 135.203 19.6875C140.859 19.6875 145.406 21.0469 148.844 23.7656C152.312 26.4531 153.969 29.9062 153.812 34.125L153.719 34.3594H141.812C141.812 32.4844 141.219 30.9844 140.031 29.8594C138.844 28.7344 137.203 28.1719 135.109 28.1719C133.047 28.1719 131.438 28.6562 130.281 29.625C129.125 30.5625 128.547 31.7812 128.547 33.2812C128.547 34.7812 129.172 35.9688 130.422 36.8438C131.672 37.6875 134.062 38.4375 137.594 39.0938C143.344 40.25 147.547 41.9219 150.203 44.1094C152.891 46.2969 154.234 49.375 154.234 53.3438C154.234 57.2812 152.469 60.5469 148.938 63.1406C145.438 65.7031 140.766 66.9844 134.922 66.9844C129.078 66.9844 124.344 65.5 120.719 62.5312C117.125 59.5312 115.422 55.9688 115.609 51.8438L115.656 51.5625H126.953C127.078 56.2188 129.875 58.5469 135.344 58.5469ZM164.5 9.28125H176.828V20.4375H184.516V29.1094H176.828V52.3594C176.828 55.6406 178.188 57.2812 180.906 57.2812C181.875 57.2812 182.969 57.125 184.188 56.8125L185.219 65.7188C182.625 66.5625 180.141 66.9844 177.766 66.9844C168.922 66.9844 164.5 62.125 164.5 52.4062V29.1094H157.844V20.4375H164.5V9.28125ZM204.672 66H192.391V20.3438H203.828L204.344 27.0938C206.688 22.0312 210.047 19.5 214.422 19.5C215.484 19.5 216.578 19.6719 217.703 20.0156L216.391 30.9375L211.891 30.7969C208.422 30.7969 206.016 32.25 204.672 35.1562V66ZM235.234 66.9844C230.484 66.9844 226.812 65.7656 224.219 63.3281C221.625 60.8906 220.328 57.4688 220.328 53.0625C220.328 48.625 222.047 45.2031 225.484 42.7969C228.922 40.3594 233.953 39.1406 240.578 39.1406H247.422V35.5312C247.422 33.2812 246.844 31.5625 245.688 30.375C244.531 29.1875 242.891 28.5938 240.766 28.5938C238.672 28.5938 237.078 29.0781 235.984 30.0469C234.891 31.0156 234.344 32.3594 234.344 34.0781L222.438 34.0312V33.7969C222.219 29.8281 223.891 26.4688 227.453 23.7188C231.047 20.9688 235.656 19.5938 241.281 19.5938C246.938 19.5938 251.438 21 254.781 23.8125C258.125 26.625 259.797 30.5469 259.797 35.5781V54.4688C259.797 58.5625 260.469 62.4375 261.812 66.0938H249.484C248.484 63.7812 247.875 61.5 247.656 59.25C244.656 64.4062 240.516 66.9844 235.234 66.9844ZM232.516 52.8281H232.562C232.562 54.3594 233.062 55.5938 234.062 56.5312C235.094 57.4375 236.562 57.8906 238.469 57.8906C240.406 57.8906 242.219 57.375 243.906 56.3438C245.594 55.2812 246.75 54.0156 247.375 52.5469V46.0781H240.531C237.969 46.0781 235.984 46.7188 234.578 48C233.203 49.25 232.516 50.8594 232.516 52.8281ZM271.375 9.28125H283.703V20.4375H291.391V29.1094H283.703V52.3594C283.703 55.6406 285.062 57.2812 287.781 57.2812C288.75 57.2812 289.844 57.125 291.062 56.8125L292.094 65.7188C289.5 66.5625 287.016 66.9844 284.641 66.9844C275.797 66.9844 271.375 62.125 271.375 52.4062V29.1094H264.719V20.4375H271.375V9.28125ZM309.625 42.8438V43.7344C309.625 48.0781 310.375 51.4688 311.875 53.9062C313.406 56.3125 315.734 57.5156 318.859 57.5156C321.984 57.5156 324.297 56.2969 325.797 53.8594C327.328 51.4219 328.094 48.0469 328.094 43.7344V42.8438C328.094 38.5938 327.328 35.25 325.797 32.8125C324.266 30.3438 321.953 29.1094 318.859 29.1094C315.766 29.1094 313.453 30.3438 311.922 32.8125C310.391 35.2812 309.625 38.625 309.625 42.8438ZM297.344 43.7344V42.8438C297.344 35.875 299.25 30.2656 303.062 26.0156C306.906 21.7344 312.156 19.5938 318.812 19.5938C325.5 19.5938 330.766 21.7344 334.609 26.0156C338.484 30.2656 340.422 35.875 340.422 42.8438V43.7344C340.422 50.7344 338.5 56.3594 334.656 60.6094C330.812 64.8594 325.547 66.9844 318.859 66.9844C312.203 66.9844 306.953 64.8594 303.109 60.6094C299.266 56.3594 297.344 50.7344 297.344 43.7344ZM360.297 66H348.016V20.3438H359.453L359.969 27.0938C362.312 22.0312 365.672 19.5 370.047 19.5C371.109 19.5 372.203 19.6719 373.328 20.0156L372.016 30.9375L367.516 30.7969C364.047 30.7969 361.641 32.25 360.297 35.1562V66Z" fill="black"/>
</svg>
