<svg width="374" height="83" viewBox="0 0 374 83" fill="none" xmlns="http://www.w3.org/2000/svg">
<path d="M0.71875 0.59375H16.7969L32.4531 45.8281H32.7344L48.4844 0.59375H64.6094V62H52.2812V43.6719L53.4531 16.5781L53.2188 16.5312L36.7656 62H28.5156L12.1094 16.6719L11.875 16.7188L13.0469 43.6719V62H0.71875V0.59375ZM85.4688 38.8438V39.7344C85.4688 44.0781 86.2188 47.4688 87.7188 49.9062C89.25 52.3125 91.5781 53.5156 94.7031 53.5156C97.8281 53.5156 100.141 52.2969 101.641 49.8594C103.172 47.4219 103.938 44.0469 103.938 39.7344V38.8438C103.938 34.5938 103.172 31.25 101.641 28.8125C100.109 26.3438 97.7969 25.1094 94.7031 25.1094C91.6094 25.1094 89.2969 26.3438 87.7656 28.8125C86.2344 31.2812 85.4688 34.625 85.4688 38.8438ZM73.1875 39.7344V38.8438C73.1875 31.875 75.0938 26.2656 78.9062 22.0156C82.75 17.7344 88 15.5938 94.6562 15.5938C101.344 15.5938 106.609 17.7344 110.453 22.0156C114.328 26.2656 116.266 31.875 116.266 38.8438V39.7344C116.266 46.7344 114.344 52.3594 110.5 56.6094C106.656 60.8594 101.391 62.9844 94.7031 62.9844C88.0469 62.9844 82.7969 60.8594 78.9531 56.6094C75.1094 52.3594 73.1875 46.7344 73.1875 39.7344ZM148.797 15.5C153.516 15.5 157.141 16.9844 159.672 19.9531C162.203 22.9219 163.469 27.4375 163.469 33.5V62H151.094V33.5C151.094 30.5 150.484 28.3438 149.266 27.0312C148.078 25.7188 146.203 25.0625 143.641 25.0625C140.391 25.0625 137.828 26.3281 135.953 28.8594V62H123.625V16.3438L135.156 16.3906L135.719 22.9531C138.875 17.9844 143.234 15.5 148.797 15.5ZM188.734 17.5625C193.672 17.5625 197.578 19.7812 200.453 24.2188L201.438 18.4062H212.078V63.8281C212.078 69.7656 210.141 74.3594 206.266 77.6094C202.391 80.8594 196.953 82.4844 189.953 82.4844C184.953 82.4844 180.109 81.2969 175.422 78.9219L177.719 69.7344C181.5 71.5781 185.531 72.5 189.812 72.5C193.219 72.5 195.703 71.7969 197.266 70.3906C198.859 69.0156 199.656 66.8125 199.656 63.7812V59.6562C196.875 63.1875 193.172 64.9531 188.547 64.9531C182.984 64.9531 178.625 62.9219 175.469 58.8594C172.312 54.7969 170.734 49.3438 170.734 42.5L170.828 41.6094C170.828 34.2656 172.406 28.4219 175.562 24.0781C178.719 19.7344 183.109 17.5625 188.734 17.5625ZM191.688 55.3438C195.344 55.3438 197.984 54 199.609 51.3125V31.4844C197.922 28.5781 195.297 27.125 191.734 27.125C188.797 27.125 186.609 28.4062 185.172 30.9688C183.734 33.5312 183.016 37.0781 183.016 41.6094L183.062 42.5C183.062 51.0625 185.938 55.3438 191.688 55.3438ZM231.719 38.8438V39.7344C231.719 44.0781 232.469 47.4688 233.969 49.9062C235.5 52.3125 237.828 53.5156 240.953 53.5156C244.078 53.5156 246.391 52.2969 247.891 49.8594C249.422 47.4219 250.188 44.0469 250.188 39.7344V38.8438C250.188 34.5938 249.422 31.25 247.891 28.8125C246.359 26.3438 244.047 25.1094 240.953 25.1094C237.859 25.1094 235.547 26.3438 234.016 28.8125C232.484 31.2812 231.719 34.625 231.719 38.8438ZM219.438 39.7344V38.8438C219.438 31.875 221.344 26.2656 225.156 22.0156C229 17.7344 234.25 15.5938 240.906 15.5938C247.594 15.5938 252.859 17.7344 256.703 22.0156C260.578 26.2656 262.516 31.875 262.516 38.8438V39.7344C262.516 46.7344 260.594 52.3594 256.75 56.6094C252.906 60.8594 247.641 62.9844 240.953 62.9844C234.297 62.9844 229.047 60.8594 225.203 56.6094C221.359 52.3594 219.438 46.7344 219.438 39.7344ZM291.578 10.0625H283.422V52.5312H291.578C295.953 52.5312 299.391 51.0625 301.891 48.125C304.422 45.1875 305.688 41.2812 305.688 36.4062V26.1406C305.688 21.2969 304.422 17.4062 301.891 14.4688C299.391 11.5312 295.953 10.0625 291.578 10.0625ZM292.188 62H271.094V0.59375H292.188C299.781 0.59375 305.984 2.98438 310.797 7.76562C315.641 12.5156 318.062 18.6719 318.062 26.2344V36.4062C318.062 43.9688 315.641 50.125 310.797 54.875C305.984 59.625 299.781 62 292.188 62ZM352.328 34.8125H340.047V52.5312H351.391C358.109 52.5312 361.469 49.7188 361.469 44.0938C361.469 37.9062 358.422 34.8125 352.328 34.8125ZM340.047 10.0625V26.3281H348.906C352.25 26.3281 354.797 25.6562 356.547 24.3125C358.297 22.9375 359.172 20.8906 359.172 18.1719C359.172 15.4531 358.297 13.4219 356.547 12.0781C354.797 10.7344 352.109 10.0625 348.484 10.0625H340.047ZM351.391 62H327.719V0.59375H348.484C355.859 0.59375 361.531 2.01562 365.5 4.85938C369.5 7.67188 371.5 11.8594 371.5 17.4219C371.5 20.2969 370.734 22.8438 369.203 25.0625C367.703 27.2812 365.531 28.9531 362.688 30.0781C366.281 30.8594 369.016 32.5156 370.891 35.0469C372.766 37.5469 373.703 40.5625 373.703 44.0938C373.703 49.9688 371.781 54.4219 367.938 57.4531C364.125 60.4844 358.609 62 351.391 62Z" fill="black"/>
</svg>
