<svg width="278" height="87" viewBox="0 0 278 87" fill="none" xmlns="http://www.w3.org/2000/svg">
<path d="M25.6719 19.5C30.3906 19.5 34.0156 20.9844 36.5469 23.9531C39.0781 26.9219 40.3438 31.4375 40.3438 37.5V66H27.9688V37.5C27.9688 34.5 27.3594 32.3438 26.1406 31.0312C24.9531 29.7188 23.0781 29.0625 20.5156 29.0625C17.2656 29.0625 14.7031 30.3281 12.8281 32.8594V66H0.5V20.3438L12.0312 20.3906L12.5938 26.9531C15.75 21.9844 20.1094 19.5 25.6719 19.5ZM59.8438 42.8438V43.7344C59.8438 48.0781 60.5938 51.4688 62.0938 53.9062C63.625 56.3125 65.9531 57.5156 69.0781 57.5156C72.2031 57.5156 74.5156 56.2969 76.0156 53.8594C77.5469 51.4219 78.3125 48.0469 78.3125 43.7344V42.8438C78.3125 38.5938 77.5469 35.25 76.0156 32.8125C74.4844 30.3438 72.1719 29.1094 69.0781 29.1094C65.9844 29.1094 63.6719 30.3438 62.1406 32.8125C60.6094 35.2812 59.8438 38.625 59.8438 42.8438ZM47.5625 43.7344V42.8438C47.5625 35.875 49.4688 30.2656 53.2812 26.0156C57.125 21.7344 62.375 19.5938 69.0312 19.5938C75.7188 19.5938 80.9844 21.7344 84.8281 26.0156C88.7031 30.2656 90.6406 35.875 90.6406 42.8438V43.7344C90.6406 50.7344 88.7188 56.3594 84.875 60.6094C81.0312 64.8594 75.7656 66.9844 69.0781 66.9844C62.4219 66.9844 57.1719 64.8594 53.3281 60.6094C49.4844 56.3594 47.5625 50.7344 47.5625 43.7344ZM114.219 19.5938C118.688 19.5938 122.344 21.5 125.188 25.3125V0.28125H137.562V66.0938H126.969L125.938 60.5156C123 64.8281 119.047 66.9844 114.078 66.9844C108.516 66.9844 104.172 64.9688 101.047 60.9375C97.9219 56.875 96.3594 51.4062 96.3594 44.5312L96.4062 43.6406C96.4062 36.2969 97.9688 30.4531 101.094 26.1094C104.219 21.7656 108.594 19.5938 114.219 19.5938ZM117.266 57.4219C120.766 57.4219 123.375 56.0156 125.094 53.2031V33.75C123.344 30.7188 120.75 29.2031 117.312 29.2031C114.375 29.2031 112.188 30.4844 110.75 33.0469C109.312 35.6094 108.594 39.1406 108.594 43.6406L108.641 44.5312C108.641 53.125 111.516 57.4219 117.266 57.4219ZM173.469 37.7344C173.469 35.0469 172.844 32.9531 171.594 31.4531C170.375 29.9219 168.594 29.1562 166.25 29.1562C163.906 29.1562 162.062 30 160.719 31.6875C159.375 33.375 158.547 35.6875 158.234 38.625L158.375 38.8594H173.469V37.7344ZM167.234 67.0312C160.672 67.0312 155.406 64.9531 151.438 60.7969C147.5 56.6406 145.531 51.25 145.531 44.625V42.9375C145.531 38.4062 146.359 34.375 148.016 30.8438C149.703 27.3125 152.109 24.5625 155.234 22.5938C158.391 20.5938 162.031 19.5938 166.156 19.5938C172.281 19.5938 177.047 21.4375 180.453 25.125C183.859 28.7812 185.562 33.8125 185.562 40.2188V46.9219H158.328L158.234 47.2031C158.453 50.2969 159.469 52.7969 161.281 54.7031C163.094 56.5781 165.406 57.5156 168.219 57.5156C171.031 57.5156 173.328 57.2656 175.109 56.7656C176.891 56.2344 178.922 55.3438 181.203 54.0938L184.531 61.6875V61.7344C182.562 63.3594 180.078 64.6562 177.078 65.625C174.109 66.5625 170.828 67.0312 167.234 67.0312ZM206.375 55.2188V66H194.094V55.2188H206.375ZM218.797 22.4062H231.125V69.75C231.125 75.0938 229.719 79.2188 226.906 82.125C224.094 85.0312 220.141 86.4844 215.047 86.4844C212.891 86.4844 210.875 86.25 209 85.7812L209.562 76.3594C210.938 76.7031 212.281 76.875 213.594 76.875C217.062 76.875 218.797 74.5 218.797 69.75V22.4062ZM230.891 2.25V11.3906H218.516V2.25H230.891ZM258.5 58.5469V58.6875C260.75 58.6875 262.469 58.25 263.656 57.375C264.875 56.4688 265.484 55.2656 265.484 53.7656C265.484 52.2656 264.797 51.0469 263.422 50.1094C262.078 49.1406 259.688 48.2656 256.25 47.4844C250.688 46.3594 246.578 44.7188 243.922 42.5625C241.266 40.4062 239.938 37.4062 239.938 33.5625C239.938 29.6875 241.594 26.4062 244.906 23.7188C248.25 21.0312 252.734 19.6875 258.359 19.6875C264.016 19.6875 268.562 21.0469 272 23.7656C275.469 26.4531 277.125 29.9062 276.969 34.125L276.875 34.3594H264.969C264.969 32.4844 264.375 30.9844 263.188 29.8594C262 28.7344 260.359 28.1719 258.266 28.1719C256.203 28.1719 254.594 28.6562 253.438 29.625C252.281 30.5625 251.703 31.7812 251.703 33.2812C251.703 34.7812 252.328 35.9688 253.578 36.8438C254.828 37.6875 257.219 38.4375 260.75 39.0938C266.5 40.25 270.703 41.9219 273.359 44.1094C276.047 46.2969 277.391 49.375 277.391 53.3438C277.391 57.2812 275.625 60.5469 272.094 63.1406C268.594 65.7031 263.922 66.9844 258.078 66.9844C252.234 66.9844 247.5 65.5 243.875 62.5312C240.281 59.5312 238.578 55.9688 238.766 51.8438L238.812 51.5625H250.109C250.234 56.2188 253.031 58.5469 258.5 58.5469Z" fill="black"/>
</svg>
