<svg width="410" height="86" viewBox="0 0 410 86" fill="none" xmlns="http://www.w3.org/2000/svg">
<path d="M24.0781 68.8125C19.2969 68.8125 15.5938 67.0781 12.9688 63.6094V85.5H0.6875V22.3125H11.7969L12.5 27.7031C15.3125 23.5469 19.1719 21.4688 24.0781 21.4688C29.6719 21.4688 34.0312 23.6406 37.1562 27.9844C40.3125 32.3281 41.8906 38.1719 41.8906 45.5156L41.8438 46.4062C41.8438 53.25 40.2656 58.7031 37.1094 62.7656C33.9844 66.7969 29.6406 68.8125 24.0781 68.8125ZM29.5625 46.4062V45.5156C29.5625 41.0156 28.8281 37.4844 27.3594 34.9219C25.8906 32.3281 23.7188 31.0312 20.8438 31.0312C17.1875 31.0312 14.5781 32.5 13.0156 35.4375V55.4062C14.5469 58.0625 17.1875 59.3906 20.9375 59.3906C23.8438 59.3906 26 58.2656 27.4062 56.0156C28.8438 53.7344 29.5625 50.5312 29.5625 46.4062ZM61.3906 26.1094C64.4844 21.7031 68.5156 19.5 73.4844 19.5C78.4844 19.5 82.2969 21.1094 84.9219 24.3281C87.5781 27.5469 88.9062 32.4062 88.9062 38.9062V66H76.5781V38.8125C76.5781 35.3438 75.9688 32.8594 74.75 31.3594C73.5312 29.8281 71.6562 29.0625 69.125 29.0625C65.8125 29.0625 63.2656 30.2188 61.4844 32.5312V66H49.2031V0.1875H61.4844L61.3906 26.1094ZM108.594 42.8438V43.7344C108.594 48.0781 109.344 51.4688 110.844 53.9062C112.375 56.3125 114.703 57.5156 117.828 57.5156C120.953 57.5156 123.266 56.2969 124.766 53.8594C126.297 51.4219 127.062 48.0469 127.062 43.7344V42.8438C127.062 38.5938 126.297 35.25 124.766 32.8125C123.234 30.3438 120.922 29.1094 117.828 29.1094C114.734 29.1094 112.422 30.3438 110.891 32.8125C109.359 35.2812 108.594 38.625 108.594 42.8438ZM96.3125 43.7344V42.8438C96.3125 35.875 98.2188 30.2656 102.031 26.0156C105.875 21.7344 111.125 19.5938 117.781 19.5938C124.469 19.5938 129.734 21.7344 133.578 26.0156C137.453 30.2656 139.391 35.875 139.391 42.8438V43.7344C139.391 50.7344 137.469 56.3594 133.625 60.6094C129.781 64.8594 124.516 66.9844 117.828 66.9844C111.172 66.9844 105.922 64.8594 102.078 60.6094C98.2344 56.3594 96.3125 50.7344 96.3125 43.7344ZM149.281 9.28125H161.609V20.4375H169.297V29.1094H161.609V52.3594C161.609 55.6406 162.969 57.2812 165.688 57.2812C166.656 57.2812 167.75 57.125 168.969 56.8125L170 65.7188C167.406 66.5625 164.922 66.9844 162.547 66.9844C153.703 66.9844 149.281 62.125 149.281 52.4062V29.1094H142.625V20.4375H149.281V9.28125ZM187.531 42.8438V43.7344C187.531 48.0781 188.281 51.4688 189.781 53.9062C191.312 56.3125 193.641 57.5156 196.766 57.5156C199.891 57.5156 202.203 56.2969 203.703 53.8594C205.234 51.4219 206 48.0469 206 43.7344V42.8438C206 38.5938 205.234 35.25 203.703 32.8125C202.172 30.3438 199.859 29.1094 196.766 29.1094C193.672 29.1094 191.359 30.3438 189.828 32.8125C188.297 35.2812 187.531 38.625 187.531 42.8438ZM175.25 43.7344V42.8438C175.25 35.875 177.156 30.2656 180.969 26.0156C184.812 21.7344 190.062 19.5938 196.719 19.5938C203.406 19.5938 208.672 21.7344 212.516 26.0156C216.391 30.2656 218.328 35.875 218.328 42.8438V43.7344C218.328 50.7344 216.406 56.3594 212.562 60.6094C208.719 64.8594 203.453 66.9844 196.766 66.9844C190.109 66.9844 184.859 64.8594 181.016 60.6094C177.172 56.3594 175.25 50.7344 175.25 43.7344ZM243.594 58.5469V58.6875C245.844 58.6875 247.562 58.25 248.75 57.375C249.969 56.4688 250.578 55.2656 250.578 53.7656C250.578 52.2656 249.891 51.0469 248.516 50.1094C247.172 49.1406 244.781 48.2656 241.344 47.4844C235.781 46.3594 231.672 44.7188 229.016 42.5625C226.359 40.4062 225.031 37.4062 225.031 33.5625C225.031 29.6875 226.688 26.4062 230 23.7188C233.344 21.0312 237.828 19.6875 243.453 19.6875C249.109 19.6875 253.656 21.0469 257.094 23.7656C260.562 26.4531 262.219 29.9062 262.062 34.125L261.969 34.3594H250.062C250.062 32.4844 249.469 30.9844 248.281 29.8594C247.094 28.7344 245.453 28.1719 243.359 28.1719C241.297 28.1719 239.688 28.6562 238.531 29.625C237.375 30.5625 236.797 31.7812 236.797 33.2812C236.797 34.7812 237.422 35.9688 238.672 36.8438C239.922 37.6875 242.312 38.4375 245.844 39.0938C251.594 40.25 255.797 41.9219 258.453 44.1094C261.141 46.2969 262.484 49.375 262.484 53.3438C262.484 57.2812 260.719 60.5469 257.188 63.1406C253.688 65.7031 249.016 66.9844 243.172 66.9844C237.328 66.9844 232.594 65.5 228.969 62.5312C225.375 59.5312 223.672 55.9688 223.859 51.8438L223.906 51.5625H235.203C235.328 56.2188 238.125 58.5469 243.594 58.5469ZM282.359 26.1094C285.453 21.7031 289.484 19.5 294.453 19.5C299.453 19.5 303.266 21.1094 305.891 24.3281C308.547 27.5469 309.875 32.4062 309.875 38.9062V66H297.547V38.8125C297.547 35.3438 296.938 32.8594 295.719 31.3594C294.5 29.8281 292.625 29.0625 290.094 29.0625C286.781 29.0625 284.234 30.2188 282.453 32.5312V66H270.172V0.1875H282.453L282.359 26.1094ZM329.562 42.8438V43.7344C329.562 48.0781 330.312 51.4688 331.812 53.9062C333.344 56.3125 335.672 57.5156 338.797 57.5156C341.922 57.5156 344.234 56.2969 345.734 53.8594C347.266 51.4219 348.031 48.0469 348.031 43.7344V42.8438C348.031 38.5938 347.266 35.25 345.734 32.8125C344.203 30.3438 341.891 29.1094 338.797 29.1094C335.703 29.1094 333.391 30.3438 331.859 32.8125C330.328 35.2812 329.562 38.625 329.562 42.8438ZM317.281 43.7344V42.8438C317.281 35.875 319.188 30.2656 323 26.0156C326.844 21.7344 332.094 19.5938 338.75 19.5938C345.438 19.5938 350.703 21.7344 354.547 26.0156C358.422 30.2656 360.359 35.875 360.359 42.8438V43.7344C360.359 50.7344 358.438 56.3594 354.594 60.6094C350.75 64.8594 345.484 66.9844 338.797 66.9844C332.141 66.9844 326.891 64.8594 323.047 60.6094C319.203 56.3594 317.281 50.7344 317.281 43.7344ZM391.297 68.8125C386.516 68.8125 382.812 67.0781 380.188 63.6094V85.5H367.906V22.3125H379.016L379.719 27.7031C382.531 23.5469 386.391 21.4688 391.297 21.4688C396.891 21.4688 401.25 23.6406 404.375 27.9844C407.531 32.3281 409.109 38.1719 409.109 45.5156L409.062 46.4062C409.062 53.25 407.484 58.7031 404.328 62.7656C401.203 66.7969 396.859 68.8125 391.297 68.8125ZM396.781 46.4062V45.5156C396.781 41.0156 396.047 37.4844 394.578 34.9219C393.109 32.3281 390.938 31.0312 388.062 31.0312C384.406 31.0312 381.797 32.5 380.234 35.4375V55.4062C381.766 58.0625 384.406 59.3906 388.156 59.3906C391.062 59.3906 393.219 58.2656 394.625 56.0156C396.062 53.7344 396.781 50.5312 396.781 46.4062Z" fill="black"/>
</svg>
