<svg width="191" height="67" viewBox="0 0 191 67" fill="none" xmlns="http://www.w3.org/2000/svg">
<path d="M13.0469 14.0625V34.2188H25.1875C28.5625 34.2188 31.1562 33.3125 32.9688 31.5C34.7812 29.6875 35.6875 27.2656 35.6875 24.2344C35.6875 21.1719 34.7812 18.7188 32.9688 16.875C31.1562 15 28.5625 14.0625 25.1875 14.0625H13.0469ZM25.1875 43.7344H13.0469V66H0.71875V4.59375H25.1875C32.2188 4.59375 37.7656 6.375 41.8281 9.9375C45.9219 13.4688 47.9688 18.2188 47.9688 24.1875C47.9688 30.125 45.9375 34.875 41.875 38.4375C37.8125 41.9688 32.25 43.7344 25.1875 43.7344ZM69.0156 20.3438V66H56.6875V20.3438H69.0156ZM69.0156 0.1875V9.42188H56.6875V0.1875H69.0156ZM104.078 19.5C108.797 19.5 112.422 20.9844 114.953 23.9531C117.484 26.9219 118.75 31.4375 118.75 37.5V66H106.375V37.5C106.375 34.5 105.766 32.3438 104.547 31.0312C103.359 29.7188 101.484 29.0625 98.9219 29.0625C95.6719 29.0625 93.1094 30.3281 91.2344 32.8594V66H78.9062V20.3438L90.4375 20.3906L91 26.9531C94.1562 21.9844 98.5156 19.5 104.078 19.5ZM140.828 20.3438V66H128.5V20.3438H140.828ZM140.828 0.1875V9.42188H128.5V0.1875H140.828ZM163.516 66.9844C158.766 66.9844 155.094 65.7656 152.5 63.3281C149.906 60.8906 148.609 57.4688 148.609 53.0625C148.609 48.625 150.328 45.2031 153.766 42.7969C157.203 40.3594 162.234 39.1406 168.859 39.1406H175.703V35.5312C175.703 33.2812 175.125 31.5625 173.969 30.375C172.812 29.1875 171.172 28.5938 169.047 28.5938C166.953 28.5938 165.359 29.0781 164.266 30.0469C163.172 31.0156 162.625 32.3594 162.625 34.0781L150.719 34.0312V33.7969C150.5 29.8281 152.172 26.4688 155.734 23.7188C159.328 20.9688 163.938 19.5938 169.562 19.5938C175.219 19.5938 179.719 21 183.062 23.8125C186.406 26.625 188.078 30.5469 188.078 35.5781V54.4688C188.078 58.5625 188.75 62.4375 190.094 66.0938H177.766C176.766 63.7812 176.156 61.5 175.938 59.25C172.938 64.4062 168.797 66.9844 163.516 66.9844ZM160.797 52.8281H160.844C160.844 54.3594 161.344 55.5938 162.344 56.5312C163.375 57.4375 164.844 57.8906 166.75 57.8906C168.688 57.8906 170.5 57.375 172.188 56.3438C173.875 55.2812 175.031 54.0156 175.656 52.5469V46.0781H168.812C166.25 46.0781 164.266 46.7188 162.859 48C161.484 49.25 160.797 50.8594 160.797 52.8281Z" fill="black"/>
</svg>
