<svg width="361" height="68" viewBox="0 0 361 68" fill="none" xmlns="http://www.w3.org/2000/svg">
<path d="M13.0469 14.0625V34.2188H25.1875C28.5625 34.2188 31.1562 33.3125 32.9688 31.5C34.7812 29.6875 35.6875 27.2656 35.6875 24.2344C35.6875 21.1719 34.7812 18.7188 32.9688 16.875C31.1562 15 28.5625 14.0625 25.1875 14.0625H13.0469ZM25.1875 43.7344H13.0469V66H0.71875V4.59375H25.1875C32.2188 4.59375 37.7656 6.375 41.8281 9.9375C45.9219 13.4688 47.9688 18.2188 47.9688 24.1875C47.9688 30.125 45.9375 34.875 41.875 38.4375C37.8125 41.9688 32.25 43.7344 25.1875 43.7344ZM68.3594 66H56.0781V20.3438H67.5156L68.0312 27.0938C70.375 22.0312 73.7344 19.5 78.1094 19.5C79.1719 19.5 80.2656 19.6719 81.3906 20.0156L80.0781 30.9375L75.5781 30.7969C72.1094 30.7969 69.7031 32.25 68.3594 35.1562V66ZM99.2969 20.3438V66H86.9688V20.3438H99.2969ZM99.2969 0.1875V9.42188H86.9688V0.1875H99.2969ZM148.094 33.4688L148.188 36V66H135.906V38.3438C135.906 35.0312 135.359 32.6562 134.266 31.2188C133.172 29.7812 131.469 29.0625 129.156 29.0625C125.906 29.0625 123.422 30.2812 121.703 32.7188V66H109.422V20.3438H120.906L121.422 26.3906C124.453 21.7969 128.906 19.5 134.781 19.5C140.656 19.5 144.656 22.1094 146.781 27.3281C149.75 22.1094 154.219 19.5 160.188 19.5C164.812 19.5 168.391 21.0781 170.922 24.2344C173.453 27.3906 174.719 32.0938 174.719 38.3438V66H162.391V38.3438C162.391 34.9688 161.844 32.5781 160.75 31.1719C159.688 29.7656 158 29.0625 155.688 29.0625C152.219 29.0625 149.688 30.5312 148.094 33.4688ZM210.719 37.7344C210.719 35.0469 210.094 32.9531 208.844 31.4531C207.625 29.9219 205.844 29.1562 203.5 29.1562C201.156 29.1562 199.312 30 197.969 31.6875C196.625 33.375 195.797 35.6875 195.484 38.625L195.625 38.8594H210.719V37.7344ZM204.484 67.0312C197.922 67.0312 192.656 64.9531 188.688 60.7969C184.75 56.6406 182.781 51.25 182.781 44.625V42.9375C182.781 38.4062 183.609 34.375 185.266 30.8438C186.953 27.3125 189.359 24.5625 192.484 22.5938C195.641 20.5938 199.281 19.5938 203.406 19.5938C209.531 19.5938 214.297 21.4375 217.703 25.125C221.109 28.7812 222.812 33.8125 222.812 40.2188V46.9219H195.578L195.484 47.2031C195.703 50.2969 196.719 52.7969 198.531 54.7031C200.344 56.5781 202.656 57.5156 205.469 57.5156C208.281 57.5156 210.578 57.2656 212.359 56.7656C214.141 56.2344 216.172 55.3438 218.453 54.0938L221.781 61.6875V61.7344C219.812 63.3594 217.328 64.6562 214.328 65.625C211.359 66.5625 208.078 67.0312 204.484 67.0312ZM238.234 20.3438L245.922 48.9844L246.719 53.2031H246.953L247.797 48.9844L255.297 20.3438H268.188L252.672 66H240.906L225.344 20.3438H238.234ZM288.625 66.9844C283.688 66.9844 279.891 65.4219 277.234 62.2969C274.609 59.1719 273.297 54.4062 273.297 48V20.4375H285.531V48.0938C285.531 51.375 286.078 53.75 287.172 55.2188C288.266 56.6875 289.953 57.4219 292.234 57.4219C296.078 57.4219 298.906 56.1719 300.719 53.6719V20.4375H313.047V66.0938H302.547L301.469 59.5312C298.531 64.5 294.25 66.9844 288.625 66.9844ZM348.812 37.7344C348.812 35.0469 348.188 32.9531 346.938 31.4531C345.719 29.9219 343.938 29.1562 341.594 29.1562C339.25 29.1562 337.406 30 336.062 31.6875C334.719 33.375 333.891 35.6875 333.578 38.625L333.719 38.8594H348.812V37.7344ZM342.578 67.0312C336.016 67.0312 330.75 64.9531 326.781 60.7969C322.844 56.6406 320.875 51.25 320.875 44.625V42.9375C320.875 38.4062 321.703 34.375 323.359 30.8438C325.047 27.3125 327.453 24.5625 330.578 22.5938C333.734 20.5938 337.375 19.5938 341.5 19.5938C347.625 19.5938 352.391 21.4375 355.797 25.125C359.203 28.7812 360.906 33.8125 360.906 40.2188V46.9219H333.672L333.578 47.2031C333.797 50.2969 334.812 52.7969 336.625 54.7031C338.438 56.5781 340.75 57.5156 343.562 57.5156C346.375 57.5156 348.672 57.2656 350.453 56.7656C352.234 56.2344 354.266 55.3438 356.547 54.0938L359.875 61.6875V61.7344C357.906 63.3594 355.422 64.6562 352.422 65.625C349.453 66.5625 346.172 67.0312 342.578 67.0312Z" fill="black"/>
</svg>
