<svg width="274" height="74" viewBox="0 0 274 74" fill="none" xmlns="http://www.w3.org/2000/svg">
<path d="M39.8438 37.9062V26.7969C39.8438 21.9219 38.6406 17.9688 36.2344 14.9375C33.8281 11.9062 30.5469 10.3906 26.3906 10.3906C22.2344 10.3906 18.9844 11.8906 16.6406 14.8906C14.3281 17.8906 13.1719 21.8594 13.1719 26.7969V37.9062C13.1719 42.875 14.3438 46.875 16.6875 49.9062C19.0312 52.9062 22.2812 54.4062 26.4375 54.4062C30.5938 54.4062 33.8594 52.9062 36.2344 49.9062C38.6406 46.875 39.8438 42.875 39.8438 37.9062ZM52.125 26.8438V37.9062C52.125 45.375 49.7969 51.5625 45.1406 56.4688L55.3125 66.4531L47.25 73.0156L36.1875 62.2812C33.1875 63.4062 29.9219 63.9688 26.3906 63.9688C21.3906 63.9688 16.9531 62.8594 13.0781 60.6406C9.20312 58.3906 6.20312 55.2969 4.07812 51.3594C1.95312 47.3906 0.890625 42.9062 0.890625 37.9062V26.8438C0.890625 19.25 3.25 13.0156 7.96875 8.14062C12.6875 3.23437 18.8281 0.78125 26.3906 0.78125C33.9844 0.78125 40.1719 3.23437 44.9531 8.14062C49.7344 13.0156 52.125 19.25 52.125 26.8438ZM77.25 62.9844C72.3125 62.9844 68.5156 61.4219 65.8594 58.2969C63.2344 55.1719 61.9219 50.4062 61.9219 44V16.4375H74.1562V44.0938C74.1562 47.375 74.7031 49.75 75.7969 51.2188C76.8906 52.6875 78.5781 53.4219 80.8594 53.4219C84.7031 53.4219 87.5312 52.1719 89.3438 49.6719V16.4375H101.672V62.0938H91.1719L90.0938 55.5312C87.1562 60.5 82.875 62.9844 77.25 62.9844ZM123.516 62.9844C118.766 62.9844 115.094 61.7656 112.5 59.3281C109.906 56.8906 108.609 53.4688 108.609 49.0625C108.609 44.625 110.328 41.2031 113.766 38.7969C117.203 36.3594 122.234 35.1406 128.859 35.1406H135.703V31.5312C135.703 29.2812 135.125 27.5625 133.969 26.375C132.812 25.1875 131.172 24.5938 129.047 24.5938C126.953 24.5938 125.359 25.0781 124.266 26.0469C123.172 27.0156 122.625 28.3594 122.625 30.0781L110.719 30.0312V29.7969C110.5 25.8281 112.172 22.4688 115.734 19.7188C119.328 16.9688 123.938 15.5938 129.562 15.5938C135.219 15.5938 139.719 17 143.062 19.8125C146.406 22.625 148.078 26.5469 148.078 31.5781V50.4688C148.078 54.5625 148.75 58.4375 150.094 62.0938H137.766C136.766 59.7812 136.156 57.5 135.938 55.25C132.938 60.4062 128.797 62.9844 123.516 62.9844ZM120.797 48.8281H120.844C120.844 50.3594 121.344 51.5938 122.344 52.5312C123.375 53.4375 124.844 53.8906 126.75 53.8906C128.688 53.8906 130.5 53.375 132.188 52.3438C133.875 51.2812 135.031 50.0156 135.656 48.5469V42.0781H128.812C126.25 42.0781 124.266 42.7188 122.859 44C121.484 45.25 120.797 46.8594 120.797 48.8281ZM175.031 54.5469V54.6875C177.281 54.6875 179 54.25 180.188 53.375C181.406 52.4688 182.016 51.2656 182.016 49.7656C182.016 48.2656 181.328 47.0469 179.953 46.1094C178.609 45.1406 176.219 44.2656 172.781 43.4844C167.219 42.3594 163.109 40.7188 160.453 38.5625C157.797 36.4062 156.469 33.4062 156.469 29.5625C156.469 25.6875 158.125 22.4062 161.438 19.7188C164.781 17.0312 169.266 15.6875 174.891 15.6875C180.547 15.6875 185.094 17.0469 188.531 19.7656C192 22.4531 193.656 25.9062 193.5 30.125L193.406 30.3594H181.5C181.5 28.4844 180.906 26.9844 179.719 25.8594C178.531 24.7344 176.891 24.1719 174.797 24.1719C172.734 24.1719 171.125 24.6562 169.969 25.625C168.812 26.5625 168.234 27.7812 168.234 29.2812C168.234 30.7812 168.859 31.9688 170.109 32.8438C171.359 33.6875 173.75 34.4375 177.281 35.0938C183.031 36.25 187.234 37.9219 189.891 40.1094C192.578 42.2969 193.922 45.375 193.922 49.3438C193.922 53.2812 192.156 56.5469 188.625 59.1406C185.125 61.7031 180.453 62.9844 174.609 62.9844C168.766 62.9844 164.031 61.5 160.406 58.5312C156.812 55.5312 155.109 51.9688 155.297 47.8438L155.344 47.5625H166.641C166.766 52.2188 169.562 54.5469 175.031 54.5469ZM214.453 62.9844C209.703 62.9844 206.031 61.7656 203.438 59.3281C200.844 56.8906 199.547 53.4688 199.547 49.0625C199.547 44.625 201.266 41.2031 204.703 38.7969C208.141 36.3594 213.172 35.1406 219.797 35.1406H226.641V31.5312C226.641 29.2812 226.062 27.5625 224.906 26.375C223.75 25.1875 222.109 24.5938 219.984 24.5938C217.891 24.5938 216.297 25.0781 215.203 26.0469C214.109 27.0156 213.562 28.3594 213.562 30.0781L201.656 30.0312V29.7969C201.438 25.8281 203.109 22.4688 206.672 19.7188C210.266 16.9688 214.875 15.5938 220.5 15.5938C226.156 15.5938 230.656 17 234 19.8125C237.344 22.625 239.016 26.5469 239.016 31.5781V50.4688C239.016 54.5625 239.688 58.4375 241.031 62.0938H228.703C227.703 59.7812 227.094 57.5 226.875 55.25C223.875 60.4062 219.734 62.9844 214.453 62.9844ZM211.734 48.8281H211.781C211.781 50.3594 212.281 51.5938 213.281 52.5312C214.312 53.4375 215.781 53.8906 217.688 53.8906C219.625 53.8906 221.438 53.375 223.125 52.3438C224.812 51.2812 225.969 50.0156 226.594 48.5469V42.0781H219.75C217.188 42.0781 215.203 42.7188 213.797 44C212.422 45.25 211.734 46.8594 211.734 48.8281ZM260.578 62H248.297V16.3438H259.734L260.25 23.0938C262.594 18.0312 265.953 15.5 270.328 15.5C271.391 15.5 272.484 15.6719 273.609 16.0156L272.297 26.9375L267.797 26.7969C264.328 26.7969 261.922 28.25 260.578 31.1562V62Z" fill="black"/>
</svg>
