<svg width="185" height="64" viewBox="0 0 185 64" fill="none" xmlns="http://www.w3.org/2000/svg">
<path d="M25.5469 54.6562H25.6406C28.9531 54.6562 31.5 53.9844 33.2812 52.6406C35.0938 51.2656 36 49.4062 36 47.0625C36 44.6875 35.1719 42.7969 33.5156 41.3906C31.8906 39.9531 28.9531 38.5938 24.7031 37.3125C16.9844 35.0938 11.3438 32.5312 7.78125 29.625C4.25 26.6875 2.48438 22.75 2.48438 17.8125C2.48438 12.8438 4.625 8.76562 8.90625 5.57812C13.1875 2.39062 18.6719 0.796875 25.3594 0.796875C32.0781 0.796875 37.5625 2.57812 41.8125 6.14062C46.0625 9.67188 48.1094 14.1094 47.9531 19.4531L47.9062 19.6875H35.9531C35.9531 16.7812 34.9844 14.4688 33.0469 12.75C31.1406 11.0312 28.5312 10.1719 25.2188 10.1719C21.9062 10.1719 19.3281 10.8906 17.4844 12.3281C15.6719 13.7344 14.7656 15.5469 14.7656 17.7656C14.7656 19.9531 15.6875 21.7188 17.5312 23.0625C19.4062 24.375 22.7812 25.7969 27.6562 27.3281C34.625 29.2656 39.7969 31.7969 43.1719 34.9219C46.5781 38.0156 48.2812 42.1094 48.2812 47.2031C48.2812 52.2969 46.2188 56.375 42.0938 59.4375C38 62.4688 32.5 63.9844 25.5938 63.9844C21.0625 63.9844 16.9219 63.2344 13.1719 61.7344C9.42188 60.2031 6.40625 57.9219 4.125 54.8906C1.84375 51.8594 0.734375 48.3438 0.796875 44.3438L0.890625 44.0625H12.8438C12.8438 51.125 17.0781 54.6562 25.5469 54.6562ZM69.1406 63.9844C64.3906 63.9844 60.7188 62.7656 58.125 60.3281C55.5312 57.8906 54.2344 54.4688 54.2344 50.0625C54.2344 45.625 55.9531 42.2031 59.3906 39.7969C62.8281 37.3594 67.8594 36.1406 74.4844 36.1406H81.3281V32.5312C81.3281 30.2812 80.75 28.5625 79.5938 27.375C78.4375 26.1875 76.7969 25.5938 74.6719 25.5938C72.5781 25.5938 70.9844 26.0781 69.8906 27.0469C68.7969 28.0156 68.25 29.3594 68.25 31.0781L56.3438 31.0312V30.7969C56.125 26.8281 57.7969 23.4688 61.3594 20.7188C64.9531 17.9688 69.5625 16.5938 75.1875 16.5938C80.8438 16.5938 85.3438 18 88.6875 20.8125C92.0312 23.625 93.7031 27.5469 93.7031 32.5781V51.4688C93.7031 55.5625 94.375 59.4375 95.7188 63.0938H83.3906C82.3906 60.7812 81.7812 58.5 81.5625 56.25C78.5625 61.4062 74.4219 63.9844 69.1406 63.9844ZM66.4219 49.8281H66.4688C66.4688 51.3594 66.9688 52.5938 67.9688 53.5312C69 54.4375 70.4688 54.8906 72.375 54.8906C74.3125 54.8906 76.125 54.375 77.8125 53.3438C79.5 52.2812 80.6562 51.0156 81.2812 49.5469V43.0781H74.4375C71.875 43.0781 69.8906 43.7188 68.4844 45C67.1094 46.25 66.4219 47.8594 66.4219 49.8281ZM120.656 55.5469V55.6875C122.906 55.6875 124.625 55.25 125.812 54.375C127.031 53.4688 127.641 52.2656 127.641 50.7656C127.641 49.2656 126.953 48.0469 125.578 47.1094C124.234 46.1406 121.844 45.2656 118.406 44.4844C112.844 43.3594 108.734 41.7188 106.078 39.5625C103.422 37.4062 102.094 34.4062 102.094 30.5625C102.094 26.6875 103.75 23.4062 107.062 20.7188C110.406 18.0312 114.891 16.6875 120.516 16.6875C126.172 16.6875 130.719 18.0469 134.156 20.7656C137.625 23.4531 139.281 26.9062 139.125 31.125L139.031 31.3594H127.125C127.125 29.4844 126.531 27.9844 125.344 26.8594C124.156 25.7344 122.516 25.1719 120.422 25.1719C118.359 25.1719 116.75 25.6562 115.594 26.625C114.438 27.5625 113.859 28.7812 113.859 30.2812C113.859 31.7812 114.484 32.9688 115.734 33.8438C116.984 34.6875 119.375 35.4375 122.906 36.0938C128.656 37.25 132.859 38.9219 135.516 41.1094C138.203 43.2969 139.547 46.375 139.547 50.3438C139.547 54.2812 137.781 57.5469 134.25 60.1406C130.75 62.7031 126.078 63.9844 120.234 63.9844C114.391 63.9844 109.656 62.5 106.031 59.5312C102.438 56.5312 100.734 52.9688 100.922 48.8438L100.969 48.5625H112.266C112.391 53.2188 115.188 55.5469 120.656 55.5469ZM165.188 55.5469V55.6875C167.438 55.6875 169.156 55.25 170.344 54.375C171.562 53.4688 172.172 52.2656 172.172 50.7656C172.172 49.2656 171.484 48.0469 170.109 47.1094C168.766 46.1406 166.375 45.2656 162.938 44.4844C157.375 43.3594 153.266 41.7188 150.609 39.5625C147.953 37.4062 146.625 34.4062 146.625 30.5625C146.625 26.6875 148.281 23.4062 151.594 20.7188C154.938 18.0312 159.422 16.6875 165.047 16.6875C170.703 16.6875 175.25 18.0469 178.688 20.7656C182.156 23.4531 183.812 26.9062 183.656 31.125L183.562 31.3594H171.656C171.656 29.4844 171.062 27.9844 169.875 26.8594C168.688 25.7344 167.047 25.1719 164.953 25.1719C162.891 25.1719 161.281 25.6562 160.125 26.625C158.969 27.5625 158.391 28.7812 158.391 30.2812C158.391 31.7812 159.016 32.9688 160.266 33.8438C161.516 34.6875 163.906 35.4375 167.438 36.0938C173.188 37.25 177.391 38.9219 180.047 41.1094C182.734 43.2969 184.078 46.375 184.078 50.3438C184.078 54.2812 182.312 57.5469 178.781 60.1406C175.281 62.7031 170.609 63.9844 164.766 63.9844C158.922 63.9844 154.188 62.5 150.562 59.5312C146.969 56.5312 145.266 52.9688 145.453 48.8438L145.5 48.5625H156.797C156.922 53.2188 159.719 55.5469 165.188 55.5469Z" fill="black"/>
</svg>
