<svg width="478" height="68" viewBox="0 0 478 68" fill="none" xmlns="http://www.w3.org/2000/svg">
<path d="M47.1875 4.59375V14.0625H29.7969V66H17.4688V14.0625H0.171875V4.59375H47.1875ZM62.0469 66.9844C57.2969 66.9844 53.625 65.7656 51.0312 63.3281C48.4375 60.8906 47.1406 57.4688 47.1406 53.0625C47.1406 48.625 48.8594 45.2031 52.2969 42.7969C55.7344 40.3594 60.7656 39.1406 67.3906 39.1406H74.2344V35.5312C74.2344 33.2812 73.6562 31.5625 72.5 30.375C71.3438 29.1875 69.7031 28.5938 67.5781 28.5938C65.4844 28.5938 63.8906 29.0781 62.7969 30.0469C61.7031 31.0156 61.1562 32.3594 61.1562 34.0781L49.25 34.0312V33.7969C49.0312 29.8281 50.7031 26.4688 54.2656 23.7188C57.8594 20.9688 62.4688 19.5938 68.0938 19.5938C73.75 19.5938 78.25 21 81.5938 23.8125C84.9375 26.625 86.6094 30.5469 86.6094 35.5781V54.4688C86.6094 58.5625 87.2812 62.4375 88.625 66.0938H76.2969C75.2969 63.7812 74.6875 61.5 74.4688 59.25C71.4688 64.4062 67.3281 66.9844 62.0469 66.9844ZM59.3281 52.8281H59.375C59.375 54.3594 59.875 55.5938 60.875 56.5312C61.9062 57.4375 63.375 57.8906 65.2812 57.8906C67.2188 57.8906 69.0312 57.375 70.7188 56.3438C72.4062 55.2812 73.5625 54.0156 74.1875 52.5469V46.0781H67.3438C64.7812 46.0781 62.7969 46.7188 61.3906 48C60.0156 49.25 59.3281 50.8594 59.3281 52.8281ZM108.828 20.3438V66H96.5V20.3438H108.828ZM108.828 0.1875V9.42188H96.5V0.1875H108.828ZM131.891 0.1875V66H119.562V0.1875H131.891ZM173.094 20.3438L181.719 49.6875H181.953L187.906 20.3438H199.484L187.859 66H177.594L169.109 38.8125H168.828L160.344 66H150.125L138.5 20.3438H150.078L156.078 49.5938H156.359L164.891 20.3438H173.094ZM218.516 20.3438V66H206.188V20.3438H218.516ZM218.516 0.1875V9.42188H206.188V0.1875H218.516ZM253.578 19.5C258.297 19.5 261.922 20.9844 264.453 23.9531C266.984 26.9219 268.25 31.4375 268.25 37.5V66H255.875V37.5C255.875 34.5 255.266 32.3438 254.047 31.0312C252.859 29.7188 250.984 29.0625 248.422 29.0625C245.172 29.0625 242.609 30.3281 240.734 32.8594V66H228.406V20.3438L239.938 20.3906L240.5 26.9531C243.656 21.9844 248.016 19.5 253.578 19.5ZM293.375 19.5938C297.844 19.5938 301.5 21.5 304.344 25.3125V0.28125H316.719V66.0938H306.125L305.094 60.5156C302.156 64.8281 298.203 66.9844 293.234 66.9844C287.672 66.9844 283.328 64.9688 280.203 60.9375C277.078 56.875 275.516 51.4062 275.516 44.5312L275.562 43.6406C275.562 36.2969 277.125 30.4531 280.25 26.1094C283.375 21.7656 287.75 19.5938 293.375 19.5938ZM296.422 57.4219C299.922 57.4219 302.531 56.0156 304.25 53.2031V33.75C302.5 30.7188 299.906 29.2031 296.469 29.2031C293.531 29.2031 291.344 30.4844 289.906 33.0469C288.469 35.6094 287.75 39.1406 287.75 43.6406L287.797 44.5312C287.797 53.125 290.672 57.4219 296.422 57.4219ZM339.781 55.2188V66H327.5V55.2188H339.781ZM361.484 42.7031V44.0156C361.484 53.0469 364.453 57.5625 370.391 57.5625C372.609 57.5625 374.375 56.9219 375.688 55.6406C377 54.3594 377.656 52.6562 377.656 50.5312H388.859L388.953 50.7656C389.078 55.3906 387.359 59.2656 383.797 62.3906C380.234 65.4844 375.766 67.0312 370.391 67.0312C363.703 67.0312 358.484 64.9375 354.734 60.75C351.016 56.5312 349.156 50.9531 349.156 44.0156V42.75C349.156 35.8125 351.016 30.2344 354.734 26.0156C358.484 21.7656 363.703 19.6406 370.391 19.6406C376.047 19.6406 380.578 21.25 383.984 24.4688C387.422 27.6562 389.078 31.875 388.953 37.125L388.906 37.3594H377.656C377.656 34.9531 377 32.9844 375.688 31.4531C374.375 29.8906 372.609 29.1094 370.391 29.1094C364.453 29.1094 361.484 33.6406 361.484 42.7031ZM413.656 58.5469V58.6875C415.906 58.6875 417.625 58.25 418.812 57.375C420.031 56.4688 420.641 55.2656 420.641 53.7656C420.641 52.2656 419.953 51.0469 418.578 50.1094C417.234 49.1406 414.844 48.2656 411.406 47.4844C405.844 46.3594 401.734 44.7188 399.078 42.5625C396.422 40.4062 395.094 37.4062 395.094 33.5625C395.094 29.6875 396.75 26.4062 400.062 23.7188C403.406 21.0312 407.891 19.6875 413.516 19.6875C419.172 19.6875 423.719 21.0469 427.156 23.7656C430.625 26.4531 432.281 29.9062 432.125 34.125L432.031 34.3594H420.125C420.125 32.4844 419.531 30.9844 418.344 29.8594C417.156 28.7344 415.516 28.1719 413.422 28.1719C411.359 28.1719 409.75 28.6562 408.594 29.625C407.438 30.5625 406.859 31.7812 406.859 33.2812C406.859 34.7812 407.484 35.9688 408.734 36.8438C409.984 37.6875 412.375 38.4375 415.906 39.0938C421.656 40.25 425.859 41.9219 428.516 44.1094C431.203 46.2969 432.547 49.375 432.547 53.3438C432.547 57.2812 430.781 60.5469 427.25 63.1406C423.75 65.7031 419.078 66.9844 413.234 66.9844C407.391 66.9844 402.656 65.5 399.031 62.5312C395.438 59.5312 393.734 55.9688 393.922 51.8438L393.969 51.5625H405.266C405.391 56.2188 408.188 58.5469 413.656 58.5469ZM458.188 58.5469V58.6875C460.438 58.6875 462.156 58.25 463.344 57.375C464.562 56.4688 465.172 55.2656 465.172 53.7656C465.172 52.2656 464.484 51.0469 463.109 50.1094C461.766 49.1406 459.375 48.2656 455.938 47.4844C450.375 46.3594 446.266 44.7188 443.609 42.5625C440.953 40.4062 439.625 37.4062 439.625 33.5625C439.625 29.6875 441.281 26.4062 444.594 23.7188C447.938 21.0312 452.422 19.6875 458.047 19.6875C463.703 19.6875 468.25 21.0469 471.688 23.7656C475.156 26.4531 476.812 29.9062 476.656 34.125L476.562 34.3594H464.656C464.656 32.4844 464.062 30.9844 462.875 29.8594C461.688 28.7344 460.047 28.1719 457.953 28.1719C455.891 28.1719 454.281 28.6562 453.125 29.625C451.969 30.5625 451.391 31.7812 451.391 33.2812C451.391 34.7812 452.016 35.9688 453.266 36.8438C454.516 37.6875 456.906 38.4375 460.438 39.0938C466.188 40.25 470.391 41.9219 473.047 44.1094C475.734 46.2969 477.078 49.375 477.078 53.3438C477.078 57.2812 475.312 60.5469 471.781 63.1406C468.281 65.7031 463.609 66.9844 457.766 66.9844C451.922 66.9844 447.188 65.5 443.562 62.5312C439.969 59.5312 438.266 55.9688 438.453 51.8438L438.5 51.5625H449.797C449.922 56.2188 452.719 58.5469 458.188 58.5469Z" fill="black"/>
</svg>
