<svg width="406" height="59" viewBox="0 0 406 59" fill="none" xmlns="http://www.w3.org/2000/svg">
<path d="M13.5469 11.3438L21.2344 39.9844L22.0312 44.2031H22.2656L23.1094 39.9844L30.6094 11.3438H43.5L27.9844 57H16.2188L0.65625 11.3438H13.5469ZM63.9375 57.9844C59 57.9844 55.2031 56.4219 52.5469 53.2969C49.9219 50.1719 48.6094 45.4062 48.6094 39V11.4375H60.8438V39.0938C60.8438 42.375 61.3906 44.75 62.4844 46.2188C63.5781 47.6875 65.2656 48.4219 67.5469 48.4219C71.3906 48.4219 74.2188 47.1719 76.0312 44.6719V11.4375H88.3594V57.0938H77.8594L76.7812 50.5312C73.8438 55.5 69.5625 57.9844 63.9375 57.9844ZM124.125 28.7344C124.125 26.0469 123.5 23.9531 122.25 22.4531C121.031 20.9219 119.25 20.1562 116.906 20.1562C114.562 20.1562 112.719 21 111.375 22.6875C110.031 24.375 109.203 26.6875 108.891 29.625L109.031 29.8594H124.125V28.7344ZM117.891 58.0312C111.328 58.0312 106.062 55.9531 102.094 51.7969C98.1562 47.6406 96.1875 42.25 96.1875 35.625V33.9375C96.1875 29.4062 97.0156 25.375 98.6719 21.8438C100.359 18.3125 102.766 15.5625 105.891 13.5938C109.047 11.5938 112.688 10.5938 116.812 10.5938C122.938 10.5938 127.703 12.4375 131.109 16.125C134.516 19.7812 136.219 24.8125 136.219 31.2188V37.9219H108.984L108.891 38.2031C109.109 41.2969 110.125 43.7969 111.938 45.7031C113.75 47.5781 116.062 48.5156 118.875 48.5156C121.688 48.5156 123.984 48.2656 125.766 47.7656C127.547 47.2344 129.578 46.3438 131.859 45.0938L135.188 52.6875V52.7344C133.219 54.3594 130.734 55.6562 127.734 56.625C124.766 57.5625 121.484 58.0312 117.891 58.0312ZM167.203 23.5781V33.0938H143.438V23.5781H167.203ZM189.516 57H177.234V11.3438H188.672L189.188 18.0938C191.531 13.0312 194.891 10.5 199.266 10.5C200.328 10.5 201.422 10.6719 202.547 11.0156L201.234 21.9375L196.734 21.7969C193.266 21.7969 190.859 23.25 189.516 26.1562V57ZM217.031 33.8438V34.7344C217.031 39.0781 217.781 42.4688 219.281 44.9062C220.812 47.3125 223.141 48.5156 226.266 48.5156C229.391 48.5156 231.703 47.2969 233.203 44.8594C234.734 42.4219 235.5 39.0469 235.5 34.7344V33.8438C235.5 29.5938 234.734 26.25 233.203 23.8125C231.672 21.3438 229.359 20.1094 226.266 20.1094C223.172 20.1094 220.859 21.3438 219.328 23.8125C217.797 26.2812 217.031 29.625 217.031 33.8438ZM204.75 34.7344V33.8438C204.75 26.875 206.656 21.2656 210.469 17.0156C214.312 12.7344 219.562 10.5938 226.219 10.5938C232.906 10.5938 238.172 12.7344 242.016 17.0156C245.891 21.2656 247.828 26.875 247.828 33.8438V34.7344C247.828 41.7344 245.906 47.3594 242.062 51.6094C238.219 55.8594 232.953 57.9844 226.266 57.9844C219.609 57.9844 214.359 55.8594 210.516 51.6094C206.672 47.3594 204.75 41.7344 204.75 34.7344ZM270.469 57.9844C265.531 57.9844 261.734 56.4219 259.078 53.2969C256.453 50.1719 255.141 45.4062 255.141 39V11.4375H267.375V39.0938C267.375 42.375 267.922 44.75 269.016 46.2188C270.109 47.6875 271.797 48.4219 274.078 48.4219C277.922 48.4219 280.75 47.1719 282.562 44.6719V11.4375H294.891V57.0938H284.391L283.312 50.5312C280.375 55.5 276.094 57.9844 270.469 57.9844ZM306.469 0.28125H318.797V11.4375H326.484V20.1094H318.797V43.3594C318.797 46.6406 320.156 48.2812 322.875 48.2812C323.844 48.2812 324.938 48.125 326.156 47.8125L327.188 56.7188C324.594 57.5625 322.109 57.9844 319.734 57.9844C310.891 57.9844 306.469 53.125 306.469 43.4062V20.1094H299.812V11.4375H306.469V0.28125ZM360.844 28.7344C360.844 26.0469 360.219 23.9531 358.969 22.4531C357.75 20.9219 355.969 20.1562 353.625 20.1562C351.281 20.1562 349.438 21 348.094 22.6875C346.75 24.375 345.922 26.6875 345.609 29.625L345.75 29.8594H360.844V28.7344ZM354.609 58.0312C348.047 58.0312 342.781 55.9531 338.812 51.7969C334.875 47.6406 332.906 42.25 332.906 35.625V33.9375C332.906 29.4062 333.734 25.375 335.391 21.8438C337.078 18.3125 339.484 15.5625 342.609 13.5938C345.766 11.5938 349.406 10.5938 353.531 10.5938C359.656 10.5938 364.422 12.4375 367.828 16.125C371.234 19.7812 372.938 24.8125 372.938 31.2188V37.9219H345.703L345.609 38.2031C345.828 41.2969 346.844 43.7969 348.656 45.7031C350.469 47.5781 352.781 48.5156 355.594 48.5156C358.406 48.5156 360.703 48.2656 362.484 47.7656C364.266 47.2344 366.297 46.3438 368.578 45.0938L371.906 52.6875V52.7344C369.938 54.3594 367.453 55.6562 364.453 56.625C361.484 57.5625 358.203 58.0312 354.609 58.0312ZM392.391 57H380.109V11.3438H391.547L392.062 18.0938C394.406 13.0312 397.766 10.5 402.141 10.5C403.203 10.5 404.297 10.6719 405.422 11.0156L404.109 21.9375L399.609 21.7969C396.141 21.7969 393.734 23.25 392.391 26.1562V57Z" fill="black"/>
</svg>
