<svg width="238" height="85" viewBox="0 0 238 85" fill="none" xmlns="http://www.w3.org/2000/svg">
<path d="M13.3125 2.59375L26.5781 47.6875L27.3281 51.0156H27.6094L28.3125 47.7344L41.6719 2.59375H54.6562L33.7969 64H21.1406L0.28125 2.59375H13.3125ZM73.5938 64.9844C68.6562 64.9844 64.8594 63.4219 62.2031 60.2969C59.5781 57.1719 58.2656 52.4062 58.2656 46V18.4375H70.5V46.0938C70.5 49.375 71.0469 51.75 72.1406 53.2188C73.2344 54.6875 74.9219 55.4219 77.2031 55.4219C81.0469 55.4219 83.875 54.1719 85.6875 51.6719V18.4375H98.0156V64.0938H87.5156L86.4375 57.5312C83.5 62.5 79.2188 64.9844 73.5938 64.9844ZM133.781 35.7344C133.781 33.0469 133.156 30.9531 131.906 29.4531C130.688 27.9219 128.906 27.1562 126.562 27.1562C124.219 27.1562 122.375 28 121.031 29.6875C119.688 31.375 118.859 33.6875 118.547 36.625L118.688 36.8594H133.781V35.7344ZM127.547 65.0312C120.984 65.0312 115.719 62.9531 111.75 58.7969C107.812 54.6406 105.844 49.25 105.844 42.625V40.9375C105.844 36.4062 106.672 32.375 108.328 28.8438C110.016 25.3125 112.422 22.5625 115.547 20.5938C118.703 18.5938 122.344 17.5938 126.469 17.5938C132.594 17.5938 137.359 19.4375 140.766 23.125C144.172 26.7812 145.875 31.8125 145.875 38.2188V44.9219H118.641L118.547 45.2031C118.766 48.2969 119.781 50.7969 121.594 52.7031C123.406 54.5781 125.719 55.5156 128.531 55.5156C131.344 55.5156 133.641 55.2656 135.422 54.7656C137.203 54.2344 139.234 53.3438 141.516 52.0938L144.844 59.6875V59.7344C142.875 61.3594 140.391 62.6562 137.391 63.625C134.422 64.5625 131.141 65.0312 127.547 65.0312ZM166.688 53.2188V64H154.406V53.2188H166.688ZM179.109 20.4062H191.438V67.75C191.438 73.0938 190.031 77.2188 187.219 80.125C184.406 83.0312 180.453 84.4844 175.359 84.4844C173.203 84.4844 171.188 84.25 169.312 83.7812L169.875 74.3594C171.25 74.7031 172.594 74.875 173.906 74.875C177.375 74.875 179.109 72.5 179.109 67.75V20.4062ZM191.203 0.25V9.39062H178.828V0.25H191.203ZM218.812 56.5469V56.6875C221.062 56.6875 222.781 56.25 223.969 55.375C225.188 54.4688 225.797 53.2656 225.797 51.7656C225.797 50.2656 225.109 49.0469 223.734 48.1094C222.391 47.1406 220 46.2656 216.562 45.4844C211 44.3594 206.891 42.7188 204.234 40.5625C201.578 38.4062 200.25 35.4062 200.25 31.5625C200.25 27.6875 201.906 24.4062 205.219 21.7188C208.562 19.0312 213.047 17.6875 218.672 17.6875C224.328 17.6875 228.875 19.0469 232.312 21.7656C235.781 24.4531 237.438 27.9062 237.281 32.125L237.188 32.3594H225.281C225.281 30.4844 224.688 28.9844 223.5 27.8594C222.312 26.7344 220.672 26.1719 218.578 26.1719C216.516 26.1719 214.906 26.6562 213.75 27.625C212.594 28.5625 212.016 29.7812 212.016 31.2812C212.016 32.7812 212.641 33.9688 213.891 34.8438C215.141 35.6875 217.531 36.4375 221.062 37.0938C226.812 38.25 231.016 39.9219 233.672 42.1094C236.359 44.2969 237.703 47.375 237.703 51.3438C237.703 55.2812 235.938 58.5469 232.406 61.1406C228.906 63.7031 224.234 64.9844 218.391 64.9844C212.547 64.9844 207.812 63.5 204.188 60.5312C200.594 57.5312 198.891 53.9688 199.078 49.8438L199.125 49.5625H210.422C210.547 54.2188 213.344 56.5469 218.812 56.5469Z" fill="black"/>
</svg>
